<svg xmlns="http://www.w3.org/2000/svg" xmlns:xlink="http://www.w3.org/1999/xlink" height="400px" version="1.1" viewBox="0 0 400 400" width="400px">
<desc/><defs>
<polygon id="path-1" points="270 80 280 80 300 200 280 200 263.333333 100 136.666667 100 120 200 100 200 120 80 130 80"/>
<filter filterUnits="objectBoundingBox" height="200%" id="filter-2" width="200%" x="-50%" y="-50%">
<feOffset dx="0" dy="4" in="SourceAlpha" result="shadowOffsetOuter1"/>
<feGaussianBlur in="shadowOffsetOuter1" result="shadowBlurOuter1" stdDeviation="2"/>
<feColorMatrix in="shadowBlurOuter1" type="matrix" values="0 0 0 0 0   0 0 0 0 0   0 0 0 0 0  0 0 0 0.5 0"/>
</filter><path d="M230,220 L230,207.99846 C230,203.581032 233.579658,200 237.995785,200 L286.002107,200 L300,200 L300,213.99923 L300,231.003033 L300,319.995475 C300,325.520822 295.51855,330 289.996403,330 L110.003597,330 C104.478763,330 100,325.517272 100,319.995475 L100,231.003033 L100,213.99923 L100,200 L113.997893,200 L162.004215,200 C166.420165,200 170,203.584935 170,207.99846 L170,220 L230,220 L230,220 Z" id="path-3"/>
<filter filterUnits="objectBoundingBox" height="200%" id="filter-4" width="200%" x="-50%" y="-50%">
<feOffset dx="0" dy="4" in="SourceAlpha" result="shadowOffsetOuter1"/>
<feGaussianBlur in="shadowOffsetOuter1" result="shadowBlurOuter1" stdDeviation="2"/><feColorMatrix in="shadowBlurOuter1" type="matrix" values="0 0 0 0 0   0 0 0 0 0   0 0 0 0 0  0 0 0 0.5 0"/></filter></defs><g fill="none" fill-rule="evenodd" id="Page-1" stroke="none" stroke-width="1"><g id="box"><path d="M200,400 C310.45695,400 400,310.45695 400,200 C400,89.54305 310.45695,0 200,0 C89.54305,0 0,89.54305 0,200 C0,310.45695 89.54305,400 200,400 Z" fill="#393232" id="Oval-6"/><g id="Combined-Shape"><use fill="black" fill-opacity="1" filter="url(#filter-2)" xlink:href="#path-1"/>
<use fill="#FBF0B8" fill-rule="evenodd" xlink:href="#path-1"/>
</g>
<g id="Combined-Shape">
<use fill="black" fill-opacity="1" filter="url(#filter-4)" xlink:href="#path-3"/>
<use fill="#ed8d8d" fill-rule="evenodd" xlink:href="#path-3"/>
</g></g></g>
</svg>